<svg width="12" height="14" viewBox="0 0 12 14" fill="none" xmlns="http://www.w3.org/2000/svg">
<path fill-rule="evenodd" clip-rule="evenodd" d="M2.66669 1.66668C2.2985 1.66668 2.00002 1.96515 2.00002 2.33334V11.6667C2.00002 12.0349 2.2985 12.3333 2.66669 12.3333H9.33335C9.70154 12.3333 10 12.0349 10 11.6667V5.27615L6.39054 1.66668H2.66669ZM0.666687 2.33334C0.666687 1.22877 1.56212 0.333344 2.66669 0.333344H6.39054C6.74417 0.333344 7.0833 0.473819 7.33335 0.723868L10.9428 4.33334C11.1929 4.58339 11.3334 4.92253 11.3334 5.27615V11.6667C11.3334 12.7712 10.4379 13.6667 9.33335 13.6667H2.66669C1.56212 13.6667 0.666687 12.7712 0.666687 11.6667V2.33334Z" fill="#4FAE70"/>
</svg>
