<svg width="14" height="10" viewBox="0 0 14 10" fill="none" xmlns="http://www.w3.org/2000/svg">
<path d="M2.2 0.199997C1.31634 0.199997 0.599998 0.916342 0.599998 1.8V2.6H13.4V1.8C13.4 0.916341 12.6837 0.199997 11.8 0.199997H2.2Z" fill="#5A607D"/>
<path fill-rule="evenodd" clip-rule="evenodd" d="M13.4 4.2H0.599998V8.2C0.599998 9.08365 1.31634 9.8 2.2 9.8H11.8C12.6837 9.8 13.4 9.08365 13.4 8.2V4.2ZM2.2 7.4C2.2 6.95817 2.55817 6.6 3 6.6H3.8C4.24182 6.6 4.6 6.95817 4.6 7.4C4.6 7.84183 4.24182 8.2 3.8 8.2H3C2.55817 8.2 2.2 7.84183 2.2 7.4ZM6.2 6.6C5.75817 6.6 5.4 6.95817 5.4 7.4C5.4 7.84183 5.75817 8.2 6.2 8.2H7C7.44182 8.2 7.8 7.84183 7.8 7.4C7.8 6.95817 7.44182 6.6 7 6.6H6.2Z" fill="#5A607D"/>
</svg>
