<svg width="12" height="12" viewBox="0 0 12 12" fill="none" xmlns="http://www.w3.org/2000/svg">
<path fill-rule="evenodd" clip-rule="evenodd" d="M6.00002 0.400002C6.44185 0.400002 6.80002 0.758174 6.80002 1.2V5.2H10.8C11.2419 5.2 11.6 5.55817 11.6 6C11.6 6.44183 11.2419 6.8 10.8 6.8H6.80002V10.8C6.80002 11.2418 6.44185 11.6 6.00002 11.6C5.5582 11.6 5.20002 11.2418 5.20002 10.8V6.8H1.20002C0.758197 6.8 0.400024 6.44183 0.400024 6C0.400024 5.55817 0.758197 5.2 1.20002 5.2L5.20002 5.2V1.2C5.20002 0.758174 5.5582 0.400002 6.00002 0.400002Z" fill="#6367F6"/>
</svg>
