<svg width="14" height="14" viewBox="0 0 14 14" fill="none" xmlns="http://www.w3.org/2000/svg">
<path fill-rule="evenodd" clip-rule="evenodd" d="M7 1.66667C4.05448 1.66667 1.66667 4.05448 1.66667 7C1.66667 9.94552 4.05448 12.3333 7 12.3333C9.94552 12.3333 12.3333 9.94552 12.3333 7C12.3333 4.05448 9.94552 1.66667 7 1.66667ZM0.333336 7C0.333336 3.3181 3.3181 0.333336 7 0.333336C10.6819 0.333336 13.6667 3.3181 13.6667 7C13.6667 10.6819 10.6819 13.6667 7 13.6667C3.3181 13.6667 0.333336 10.6819 0.333336 7ZM6.33334 4.33334C6.33334 3.96515 6.63181 3.66667 7 3.66667H7.00667C7.37486 3.66667 7.67334 3.96515 7.67334 4.33334C7.67334 4.70153 7.37486 5 7.00667 5H7C6.63181 5 6.33334 4.70153 6.33334 4.33334ZM5.66667 7C5.66667 6.63181 5.96515 6.33334 6.33334 6.33334H7C7.36819 6.33334 7.66667 6.63181 7.66667 7V9C8.03486 9 8.33334 9.29848 8.33334 9.66667C8.33334 10.0349 8.03486 10.3333 7.66667 10.3333H7C6.63181 10.3333 6.33334 10.0349 6.33334 9.66667V7.66667C5.96515 7.66667 5.66667 7.36819 5.66667 7Z" fill="#5A607D"/>
</svg>
